<?xml version="1.0" encoding="UTF-8"?>
<svg version="1.1" xmlns="http://www.w3.org/2000/svg" width="640" height="640">
<path d="M0 0 C100.65 0 201.3 0 305 0 C305 100.65 305 201.3 305 305 C204.35 305 103.7 305 0 305 C0 204.35 0 103.7 0 0 Z " fill="#FBBC08" transform="translate(335,335)"/>
<path d="M0 0 C100.65 0 201.3 0 305 0 C305 100.65 305 201.3 305 305 C204.35 305 103.7 305 0 305 C0 204.35 0 103.7 0 0 Z " fill="#00ADEF" transform="translate(0,335)"/>
<path d="M0 0 C100.65 0 201.3 0 305 0 C305 100.65 305 201.3 305 305 C204.35 305 103.7 305 0 305 C0 204.35 0 103.7 0 0 Z " fill="#80CC28" transform="translate(335,0)"/>
<path d="M0 0 C100.65 0 201.3 0 305 0 C305 100.65 305 201.3 305 305 C204.35 305 103.7 305 0 305 C0 204.35 0 103.7 0 0 Z " fill="#F1511B" transform="translate(0,0)"/>
<path d="M0 0 C0.33 0 0.66 0 1 0 C1 100.32 1 200.64 1 304 C0.67 304 0.34 304 0 304 C0 203.68 0 103.36 0 0 Z " fill="#FFFF00" transform="translate(333,336)"/>
<path d="M0 0 C0.33 0 0.66 0 1 0 C1 100.32 1 200.64 1 304 C0.67 304 0.34 304 0 304 C0 203.68 0 103.36 0 0 Z " fill="#00FFFF" transform="translate(306,336)"/>
<path d="M0 0 C100.32 0 200.64 0 304 0 C304 0.33 304 0.66 304 1 C203.68 1 103.36 1 0 1 C0 0.67 0 0.34 0 0 Z " fill="#FF9B00" transform="translate(336,333)"/>
<path d="M0 0 C100.32 0 200.64 0 304 0 C304 0.33 304 0.66 304 1 C203.68 1 103.36 1 0 1 C0 0.67 0 0.34 0 0 Z " fill="#009BFF" transform="translate(0,333)"/>
<path d="M0 0 C100.32 0 200.64 0 304 0 C304 0.33 304 0.66 304 1 C203.68 1 103.36 1 0 1 C0 0.67 0 0.34 0 0 Z " fill="#9BFF00" transform="translate(336,306)"/>
<path d="M0 0 C100.32 0 200.64 0 304 0 C304 0.33 304 0.66 304 1 C203.68 1 103.36 1 0 1 C0 0.67 0 0.34 0 0 Z " fill="#FF9B00" transform="translate(0,306)"/>
<path d="M0 0 C0.33 0 0.66 0 1 0 C1 100.32 1 200.64 1 304 C0.67 304 0.34 304 0 304 C0 203.68 0 103.36 0 0 Z " fill="#9BFF00" transform="translate(333,0)"/>
<path d="M0 0 C0.33 0 0.66 0 1 0 C1 100.32 1 200.64 1 304 C0.67 304 0.34 304 0 304 C0 203.68 0 103.36 0 0 Z " fill="#FF9B00" transform="translate(306,0)"/>
</svg>
