<?xml version="1.0" encoding="UTF-8"?>
<svg version="1.1" xmlns="http://www.w3.org/2000/svg" width="256" height="256">
<path d="M0 0 C1.01814285 0.00456207 1.01814285 0.00456207 2.05685425 0.00921631 C28.09315434 0.18147229 50.04483177 8.92159148 68.75 27.4375 C73.55648303 32.46361143 77.83754767 37.69108563 81.75 43.4375 C80.18502098 47.45771556 77.34703095 49.8452956 74.1875 52.625 C67.70060428 58.44726623 61.5632224 64.57578455 55.48803711 70.82495117 C54.7997583 71.52467041 54.11147949 72.22438965 53.40234375 72.9453125 C52.79382568 73.57066895 52.18530762 74.19602539 51.55834961 74.84033203 C49.71743684 76.46626039 47.98841343 77.44984673 45.75 78.4375 C45.193125 77.5196875 44.63625 76.601875 44.0625 75.65625 C36.03961359 62.64942244 27.84729716 53.24931281 12.4375 49.0625 C-0.13205506 46.84568756 -12.79966311 47.78611311 -23.55859375 54.98046875 C-27.21182072 58.12747489 -29.64965186 62.63471491 -30.25 67.4375 C-30.61455549 73.87798039 -29.91509271 79.51784972 -26.125 84.875 C-15.37853205 96.05969583 3.60259334 100.08217578 17.8125 104.75 C20.98653116 105.80350102 24.15939825 106.86038936 27.33140564 107.91996765 C29.28667921 108.57198269 31.24328236 109.22002933 33.20143127 109.86335754 C37.12679314 111.16304948 40.98078923 112.48692733 44.76391602 114.16064453 C47.54307086 115.59492651 47.54307086 115.59492651 49.9296875 115.37890625 C52.40557512 114.09845793 53.98324276 112.41421361 55.875 110.375 C57.13012669 109.02751493 58.41507028 107.70597218 59.75 106.4375 C60.41 106.4375 61.07 106.4375 61.75 106.4375 C61.75 105.7775 61.75 105.1175 61.75 104.4375 C63.20117188 103.00976562 63.20117188 103.00976562 65.21875 101.34375 C69.81208822 97.43779514 74.02740747 93.23700678 78.25 88.9375 C83.02663298 84.07386096 87.84142036 79.36838882 93.04248047 74.95678711 C94.9866966 73.28509446 94.9866966 73.28509446 97.375 70.5 C99.75 68.4375 99.75 68.4375 103.0625 68.125 C103.949375 68.228125 104.83625 68.33125 105.75 68.4375 C104.12081822 73.54629224 101.02908835 77.43459152 97.875 81.6875 C96.68926955 83.3066808 95.50439269 84.926487 94.3203125 86.546875 C93.7212207 87.36478516 93.12212891 88.18269531 92.50488281 89.02539062 C89.87925583 92.63434925 87.31299365 96.28392553 84.75 99.9375 C80.08944115 106.56728738 75.36054664 113.14479787 70.60546875 119.70703125 C66.44544701 125.45560545 62.3461582 131.24474028 58.26513672 137.04956055 C54.67604319 142.14654329 51.03576844 147.20431434 47.375 152.25 C42.76864849 158.60168373 38.23654145 165.00066619 33.75 171.4375 C28.73703438 178.62959372 23.65209527 185.76355784 18.50390625 192.859375 C14.37704026 198.55264268 10.31451055 204.28867188 6.27124023 210.04150391 C2.62067892 215.22677631 -1.08684833 220.36849395 -4.8125 225.5 C-10.77219857 233.7132908 -16.54501079 242.04579243 -22.25 250.4375 C-26.39693476 248.77671302 -29.31706679 245.77764564 -32.5 242.75 C-33.65947111 241.663331 -34.81962567 240.57739076 -35.98046875 239.4921875 C-36.82037354 238.70473145 -36.82037354 238.70473145 -37.67724609 237.90136719 C-43.34779252 232.61879253 -43.34779252 232.61879253 -49.46484375 227.87890625 C-50.05394531 227.40324219 -50.64304688 226.92757812 -51.25 226.4375 C-51.25 225.7775 -51.25 225.1175 -51.25 224.4375 C-52.12833496 224.04244263 -52.12833496 224.04244263 -53.02441406 223.6394043 C-55.34856286 222.38427217 -56.95607738 221.03064046 -58.859375 219.20703125 C-59.53226563 218.56830078 -60.20515625 217.92957031 -60.8984375 217.27148438 C-61.93871094 216.27084961 -61.93871094 216.27084961 -63 215.25 C-70.19817981 208.37341188 -77.57074857 201.77288243 -85.25 195.4375 C-84.17966341 189.31517471 -79.7237405 184.43406437 -76.25 179.4375 C-75.7643457 178.73705566 -75.27869141 178.03661133 -74.77832031 177.31494141 C-73.21156689 175.06045324 -71.63855615 172.81049352 -70.0625 170.5625 C-69.56387451 169.84940674 -69.06524902 169.13631348 -68.55151367 168.40161133 C-65.6190922 164.24828137 -62.55953055 160.29761059 -59.25 156.4375 C-56.32356763 157.76606194 -54.1799237 159.23314177 -51.859375 161.44921875 C-51.23619385 162.03888428 -50.6130127 162.6285498 -49.97094727 163.23608398 C-49.32053467 163.85942627 -48.67012207 164.48276855 -48 165.125 C-46.65056837 166.40191809 -45.30031664 167.6779701 -43.94921875 168.953125 C-43.30645996 169.56091797 -42.66370117 170.16871094 -42.00146484 170.79492188 C-38.83035419 173.76888793 -35.54908687 176.60764868 -32.25 179.4375 C-30.74887242 180.74871022 -29.24886909 182.06120866 -27.75 183.375 C-26.74453125 184.25478516 -26.74453125 184.25478516 -25.71875 185.15234375 C-25.2340625 185.57644531 -24.749375 186.00054687 -24.25 186.4375 C-20.78578519 184.95562383 -18.60348024 183.00008361 -15.9921875 180.3046875 C-14.80689453 179.09619141 -14.80689453 179.09619141 -13.59765625 177.86328125 C-12.78167969 177.02152344 -11.96570313 176.17976562 -11.125 175.3125 C-9.50202519 173.63872785 -7.87464799 171.96920941 -6.2421875 170.3046875 C-5.52401855 169.56331543 -4.80584961 168.82194336 -4.06591797 168.05810547 C-2.25 166.4375 -2.25 166.4375 -0.25 166.4375 C-0.25 165.7775 -0.25 165.1175 -0.25 164.4375 C1.32421875 162.88671875 1.32421875 162.88671875 3.4375 161.125 C6.70300964 158.35250692 9.76915985 155.51149141 12.75 152.4375 C8.09895915 150.36640597 3.51720618 148.66165401 -1.37109375 147.203125 C-2.72478256 146.79419266 -4.07829196 146.38466602 -5.43164062 145.97460938 C-6.4754187 145.65979614 -6.4754187 145.65979614 -7.5402832 145.33862305 C-32.08057955 137.89701186 -59.76827274 128.90239751 -73.0078125 105.00390625 C-81.50831866 87.44153975 -83.08456967 67.13553367 -77.25 48.4375 C-73.36939332 38.31449417 -68.13175909 29.95527022 -60.25 22.4375 C-59.63769531 21.81746094 -59.02539062 21.19742187 -58.39453125 20.55859375 C-42.69546539 5.59594462 -21.12873477 -0.16467004 0 0 Z " fill="#05ACEE" transform="translate(122.25,1.5625)"/>
<path d="M0 0 C3 1 3 1 4.31640625 3.40625 C4.93322266 4.93765625 4.93322266 4.93765625 5.5625 6.5 C5.97628906 7.5003125 6.39007813 8.500625 6.81640625 9.53125 C13.26187245 28.42093311 11.67935062 49.86757374 2.9375 67.6875 C-8.4677725 87.42273797 -27.56435576 98.52160347 -49.07519531 104.49511719 C-57.730005 106.76530319 -66.08192772 107.28461933 -75 107 C-73.37294581 101.91919888 -70.32251251 98.04748485 -67.1875 93.8125 C-66.00510001 92.1953917 -64.82281144 90.57820192 -63.640625 88.9609375 C-62.73280273 87.7248877 -62.73280273 87.7248877 -61.80664062 86.46386719 C-58.99891992 82.63474322 -56.21719784 78.78699222 -53.4375 74.9375 C-52.63058716 73.82145386 -52.63058716 73.82145386 -51.80737305 72.68286133 C-48.17088087 67.64557333 -44.57467981 62.58129495 -41 57.5 C-34.19225873 47.82300986 -27.25357368 38.24202634 -20.30615234 28.66503906 C-13.4282368 19.18248079 -6.61211102 9.67042594 0 0 Z " fill="#05ACEE" transform="translate(206,147)"/>
</svg>
